<svg width="197" height="32" viewBox="0 0 197 32" fill="none" xmlns="http://www.w3.org/2000/svg">
<path d="M19.8182 11.3125C19.6193 10.6212 19.34 10.0104 18.9801 9.48011C18.6203 8.94034 18.1799 8.4858 17.6591 8.11648C17.1477 7.73769 16.5606 7.44886 15.8977 7.25C15.2443 7.05114 14.5199 6.9517 13.7244 6.9517C12.2377 6.9517 10.9309 7.32102 9.80398 8.05966C8.68655 8.79829 7.81534 9.87311 7.19034 11.2841C6.56534 12.6856 6.25284 14.3996 6.25284 16.4261C6.25284 18.4527 6.56061 20.1761 7.17614 21.5966C7.79167 23.017 8.66288 24.1013 9.78977 24.8494C10.9167 25.5881 12.2472 25.9574 13.7812 25.9574C15.1733 25.9574 16.3617 25.7112 17.3466 25.2188C18.3409 24.7169 19.0985 24.0114 19.6193 23.1023C20.1496 22.1932 20.4148 21.1184 20.4148 19.8778L21.6648 20.0625H14.1648V15.4318H26.3381V19.0966C26.3381 21.6534 25.7983 23.8504 24.7188 25.6875C23.6392 27.5152 22.1525 28.9261 20.2585 29.9205C18.3646 30.9053 16.196 31.3977 13.7528 31.3977C11.0256 31.3977 8.62974 30.7964 6.56534 29.5938C4.50095 28.3816 2.8911 26.6629 1.7358 24.4375C0.589962 22.2027 0.0170455 19.5511 0.0170455 16.483C0.0170455 14.125 0.357955 12.0227 1.03977 10.1761C1.73106 8.32008 2.69697 6.74811 3.9375 5.46023C5.17803 4.17235 6.62216 3.19223 8.26989 2.51989C9.91761 1.84754 11.7027 1.51136 13.625 1.51136C15.2727 1.51136 16.8068 1.75284 18.2273 2.2358C19.6477 2.70928 20.9072 3.38163 22.0057 4.25284C23.1136 5.12405 24.018 6.16098 24.7188 7.36364C25.4195 8.55682 25.8693 9.87311 26.0682 11.3125H19.8182ZM37.0661 31.4119C35.674 31.4119 34.4335 31.1705 33.3445 30.6875C32.2554 30.1951 31.3937 29.4706 30.7592 28.5142C30.1342 27.5483 29.8217 26.3456 29.8217 24.9062C29.8217 23.6941 30.0443 22.6761 30.4893 21.8523C30.9344 21.0284 31.5405 20.3655 32.3075 19.8636C33.0746 19.3617 33.9458 18.983 34.9212 18.7273C35.906 18.4716 36.9382 18.2917 38.0178 18.1875C39.2867 18.0549 40.3094 17.9318 41.0859 17.8182C41.8625 17.6951 42.4259 17.5152 42.7763 17.2784C43.1267 17.0417 43.3018 16.6913 43.3018 16.2273V16.142C43.3018 15.2424 43.0178 14.5464 42.4496 14.054C41.8909 13.5616 41.0954 13.3153 40.0632 13.3153C38.9742 13.3153 38.1077 13.5568 37.4638 14.0398C36.8198 14.5133 36.3937 15.1098 36.1854 15.8295L30.5888 15.375C30.8729 14.0492 31.4316 12.9034 32.2649 11.9375C33.0982 10.9621 34.1731 10.214 35.4893 9.69318C36.8151 9.16288 38.3492 8.89773 40.0916 8.89773C41.3037 8.89773 42.4638 9.03977 43.5717 9.32386C44.6892 9.60795 45.6787 10.0483 46.5405 10.6449C47.4117 11.2415 48.0982 12.0085 48.6001 12.946C49.102 13.8741 49.353 14.9867 49.353 16.2841V31H43.6143V27.9744H43.4439C43.0935 28.6562 42.6248 29.2576 42.0376 29.7784C41.4505 30.2898 40.745 30.6922 39.9212 30.9858C39.0973 31.2699 38.1456 31.4119 37.0661 31.4119ZM38.799 27.2358C39.6892 27.2358 40.4751 27.0606 41.157 26.7102C41.8388 26.3504 42.3738 25.8674 42.7621 25.2614C43.1503 24.6553 43.3445 23.9687 43.3445 23.2017V20.8864C43.1551 21.0095 42.8947 21.1231 42.5632 21.2273C42.2412 21.322 41.8767 21.4119 41.4695 21.4972C41.0623 21.5729 40.6551 21.6439 40.2479 21.7102C39.8407 21.767 39.4714 21.8191 39.1399 21.8665C38.4297 21.9706 37.8094 22.1364 37.2791 22.3636C36.7488 22.5909 36.3369 22.8987 36.0433 23.2869C35.7498 23.6657 35.603 24.1392 35.603 24.7074C35.603 25.5312 35.9013 26.161 36.4979 26.5966C37.1039 27.0227 37.871 27.2358 38.799 27.2358ZM54.1612 31V1.90909H60.2124V12.8466H60.397C60.6622 12.2595 61.0457 11.6629 61.5476 11.0568C62.0589 10.4413 62.7218 9.92992 63.5362 9.52273C64.3601 9.10606 65.3828 8.89773 66.6044 8.89773C68.1953 8.89773 69.6631 9.31439 71.0078 10.1477C72.3525 10.9716 73.4273 12.2169 74.2322 13.8835C75.0372 15.5407 75.4396 17.6193 75.4396 20.1193C75.4396 22.553 75.0466 24.608 74.2607 26.2841C73.4841 27.9508 72.4235 29.215 71.0788 30.0767C69.7436 30.929 68.2474 31.3551 66.5902 31.3551C65.416 31.3551 64.4169 31.161 63.593 30.7727C62.7786 30.3845 62.111 29.8968 61.5902 29.3097C61.0694 28.7131 60.6716 28.1117 60.397 27.5057H60.1271V31H54.1612ZM60.0845 20.0909C60.0845 21.3883 60.2644 22.5199 60.6243 23.4858C60.9841 24.4517 61.505 25.2045 62.1868 25.7443C62.8686 26.2746 63.6972 26.5398 64.6726 26.5398C65.6574 26.5398 66.4908 26.2699 67.1726 25.7301C67.8544 25.1809 68.3705 24.4233 68.7209 23.4574C69.0807 22.482 69.2607 21.3598 69.2607 20.0909C69.2607 18.8314 69.0855 17.7235 68.7351 16.767C68.3847 15.8106 67.8686 15.0625 67.1868 14.5227C66.505 13.983 65.6669 13.7131 64.6726 13.7131C63.6877 13.7131 62.8544 13.9735 62.1726 14.4943C61.5002 15.0152 60.9841 15.7538 60.6243 16.7102C60.2644 17.6667 60.0845 18.7936 60.0845 20.0909ZM79.4773 31V9.18182H85.3438V12.9886H85.571C85.9688 11.6345 86.6364 10.6117 87.5739 9.92045C88.5114 9.2197 89.5909 8.86932 90.8125 8.86932C91.1155 8.86932 91.4422 8.88826 91.7926 8.92614C92.143 8.96402 92.4508 9.0161 92.7159 9.08239V14.4517C92.4318 14.3665 92.0388 14.2907 91.5369 14.2244C91.035 14.1581 90.5758 14.125 90.1591 14.125C89.2689 14.125 88.4735 14.3191 87.7727 14.7074C87.0814 15.0862 86.5322 15.6165 86.125 16.2983C85.7273 16.9801 85.5284 17.7661 85.5284 18.6562V31H79.4773ZM95.8445 31V9.18182H101.896V31H95.8445ZM98.8842 6.36932C97.9846 6.36932 97.2128 6.07102 96.5689 5.47443C95.9344 4.86837 95.6172 4.14394 95.6172 3.30114C95.6172 2.4678 95.9344 1.75284 96.5689 1.15625C97.2128 0.550188 97.9846 0.247158 98.8842 0.247158C99.7839 0.247158 100.551 0.550188 101.185 1.15625C101.829 1.75284 102.151 2.4678 102.151 3.30114C102.151 4.14394 101.829 4.86837 101.185 5.47443C100.551 6.07102 99.7839 6.36932 98.8842 6.36932ZM116.686 31.4261C114.442 31.4261 112.51 30.9716 110.891 30.0625C109.281 29.1439 108.04 27.8466 107.169 26.1705C106.298 24.4848 105.862 22.4915 105.862 20.1903C105.862 17.946 106.298 15.9763 107.169 14.2812C108.04 12.5862 109.267 11.2652 110.848 10.3182C112.439 9.37121 114.304 8.89773 116.445 8.89773C117.884 8.89773 119.224 9.12973 120.464 9.59375C121.714 10.0483 122.804 10.7348 123.732 11.6534C124.669 12.572 125.398 13.7273 125.919 15.1193C126.44 16.5019 126.7 18.1212 126.7 19.9773V21.6392H108.277V17.8892H121.004C121.004 17.018 120.815 16.2462 120.436 15.5739C120.057 14.9015 119.532 14.3759 118.859 13.9972C118.196 13.6089 117.425 13.4148 116.544 13.4148C115.625 13.4148 114.811 13.6278 114.101 14.054C113.4 14.4706 112.851 15.0341 112.453 15.7443C112.055 16.4451 111.852 17.2263 111.842 18.0881V21.6534C111.842 22.733 112.041 23.6657 112.439 24.4517C112.846 25.2377 113.419 25.8438 114.158 26.2699C114.896 26.696 115.772 26.9091 116.786 26.9091C117.458 26.9091 118.073 26.8144 118.632 26.625C119.191 26.4356 119.669 26.1515 120.067 25.7727C120.464 25.3939 120.768 24.9299 120.976 24.3807L126.572 24.75C126.288 26.0947 125.706 27.2689 124.825 28.2727C123.954 29.267 122.827 30.0436 121.445 30.6023C120.071 31.1515 118.485 31.4261 116.686 31.4261ZM136.7 1.90909V31H130.649V1.90909H136.7ZM150.919 1.90909H158.504L166.516 21.4545H166.857L174.868 1.90909H182.453V31H176.487V12.0653H176.246L168.717 30.858H164.655L157.126 11.9943H156.885V31H150.919V1.90909Z" fill="black"/>
<path d="M19.8182 11.3125C19.6193 10.6212 19.34 10.0104 18.9801 9.48011C18.6203 8.94034 18.1799 8.4858 17.6591 8.11648C17.1477 7.73769 16.5606 7.44886 15.8977 7.25C15.2443 7.05114 14.5199 6.9517 13.7244 6.9517C12.2377 6.9517 10.9309 7.32102 9.80398 8.05966C8.68655 8.79829 7.81534 9.87311 7.19034 11.2841C6.56534 12.6856 6.25284 14.3996 6.25284 16.4261C6.25284 18.4527 6.56061 20.1761 7.17614 21.5966C7.79167 23.017 8.66288 24.1013 9.78977 24.8494C10.9167 25.5881 12.2472 25.9574 13.7812 25.9574C15.1733 25.9574 16.3617 25.7112 17.3466 25.2188C18.3409 24.7169 19.0985 24.0114 19.6193 23.1023C20.1496 22.1932 20.4148 21.1184 20.4148 19.8778L21.6648 20.0625H14.1648V15.4318H26.3381V19.0966C26.3381 21.6534 25.7983 23.8504 24.7188 25.6875C23.6392 27.5152 22.1525 28.9261 20.2585 29.9205C18.3646 30.9053 16.196 31.3977 13.7528 31.3977C11.0256 31.3977 8.62974 30.7964 6.56534 29.5938C4.50095 28.3816 2.8911 26.6629 1.7358 24.4375C0.589962 22.2027 0.0170455 19.5511 0.0170455 16.483C0.0170455 14.125 0.357955 12.0227 1.03977 10.1761C1.73106 8.32008 2.69697 6.74811 3.9375 5.46023C5.17803 4.17235 6.62216 3.19223 8.26989 2.51989C9.91761 1.84754 11.7027 1.51136 13.625 1.51136C15.2727 1.51136 16.8068 1.75284 18.2273 2.2358C19.6477 2.70928 20.9072 3.38163 22.0057 4.25284C23.1136 5.12405 24.018 6.16098 24.7188 7.36364C25.4195 8.55682 25.8693 9.87311 26.0682 11.3125H19.8182ZM37.0661 31.4119C35.674 31.4119 34.4335 31.1705 33.3445 30.6875C32.2554 30.1951 31.3937 29.4706 30.7592 28.5142C30.1342 27.5483 29.8217 26.3456 29.8217 24.9062C29.8217 23.6941 30.0443 22.6761 30.4893 21.8523C30.9344 21.0284 31.5405 20.3655 32.3075 19.8636C33.0746 19.3617 33.9458 18.983 34.9212 18.7273C35.906 18.4716 36.9382 18.2917 38.0178 18.1875C39.2867 18.0549 40.3094 17.9318 41.0859 17.8182C41.8625 17.6951 42.4259 17.5152 42.7763 17.2784C43.1267 17.0417 43.3018 16.6913 43.3018 16.2273V16.142C43.3018 15.2424 43.0178 14.5464 42.4496 14.054C41.8909 13.5616 41.0954 13.3153 40.0632 13.3153C38.9742 13.3153 38.1077 13.5568 37.4638 14.0398C36.8198 14.5133 36.3937 15.1098 36.1854 15.8295L30.5888 15.375C30.8729 14.0492 31.4316 12.9034 32.2649 11.9375C33.0982 10.9621 34.1731 10.214 35.4893 9.69318C36.8151 9.16288 38.3492 8.89773 40.0916 8.89773C41.3037 8.89773 42.4638 9.03977 43.5717 9.32386C44.6892 9.60795 45.6787 10.0483 46.5405 10.6449C47.4117 11.2415 48.0982 12.0085 48.6001 12.946C49.102 13.8741 49.353 14.9867 49.353 16.2841V31H43.6143V27.9744H43.4439C43.0935 28.6562 42.6248 29.2576 42.0376 29.7784C41.4505 30.2898 40.745 30.6922 39.9212 30.9858C39.0973 31.2699 38.1456 31.4119 37.0661 31.4119ZM38.799 27.2358C39.6892 27.2358 40.4751 27.0606 41.157 26.7102C41.8388 26.3504 42.3738 25.8674 42.7621 25.2614C43.1503 24.6553 43.3445 23.9687 43.3445 23.2017V20.8864C43.1551 21.0095 42.8947 21.1231 42.5632 21.2273C42.2412 21.322 41.8767 21.4119 41.4695 21.4972C41.0623 21.5729 40.6551 21.6439 40.2479 21.7102C39.8407 21.767 39.4714 21.8191 39.1399 21.8665C38.4297 21.9706 37.8094 22.1364 37.2791 22.3636C36.7488 22.5909 36.3369 22.8987 36.0433 23.2869C35.7498 23.6657 35.603 24.1392 35.603 24.7074C35.603 25.5312 35.9013 26.161 36.4979 26.5966C37.1039 27.0227 37.871 27.2358 38.799 27.2358ZM54.1612 31V1.90909H60.2124V12.8466H60.397C60.6622 12.2595 61.0457 11.6629 61.5476 11.0568C62.0589 10.4413 62.7218 9.92992 63.5362 9.52273C64.3601 9.10606 65.3828 8.89773 66.6044 8.89773C68.1953 8.89773 69.6631 9.31439 71.0078 10.1477C72.3525 10.9716 73.4273 12.2169 74.2322 13.8835C75.0372 15.5407 75.4396 17.6193 75.4396 20.1193C75.4396 22.553 75.0466 24.608 74.2607 26.2841C73.4841 27.9508 72.4235 29.215 71.0788 30.0767C69.7436 30.929 68.2474 31.3551 66.5902 31.3551C65.416 31.3551 64.4169 31.161 63.593 30.7727C62.7786 30.3845 62.111 29.8968 61.5902 29.3097C61.0694 28.7131 60.6716 28.1117 60.397 27.5057H60.1271V31H54.1612ZM60.0845 20.0909C60.0845 21.3883 60.2644 22.5199 60.6243 23.4858C60.9841 24.4517 61.505 25.2045 62.1868 25.7443C62.8686 26.2746 63.6972 26.5398 64.6726 26.5398C65.6574 26.5398 66.4908 26.2699 67.1726 25.7301C67.8544 25.1809 68.3705 24.4233 68.7209 23.4574C69.0807 22.482 69.2607 21.3598 69.2607 20.0909C69.2607 18.8314 69.0855 17.7235 68.7351 16.767C68.3847 15.8106 67.8686 15.0625 67.1868 14.5227C66.505 13.983 65.6669 13.7131 64.6726 13.7131C63.6877 13.7131 62.8544 13.9735 62.1726 14.4943C61.5002 15.0152 60.9841 15.7538 60.6243 16.7102C60.2644 17.6667 60.0845 18.7936 60.0845 20.0909ZM79.4773 31V9.18182H85.3438V12.9886H85.571C85.9688 11.6345 86.6364 10.6117 87.5739 9.92045C88.5114 9.2197 89.5909 8.86932 90.8125 8.86932C91.1155 8.86932 91.4422 8.88826 91.7926 8.92614C92.143 8.96402 92.4508 9.0161 92.7159 9.08239V14.4517C92.4318 14.3665 92.0388 14.2907 91.5369 14.2244C91.035 14.1581 90.5758 14.125 90.1591 14.125C89.2689 14.125 88.4735 14.3191 87.7727 14.7074C87.0814 15.0862 86.5322 15.6165 86.125 16.2983C85.7273 16.9801 85.5284 17.7661 85.5284 18.6562V31H79.4773ZM95.8445 31V9.18182H101.896V31H95.8445ZM98.8842 6.36932C97.9846 6.36932 97.2128 6.07102 96.5689 5.47443C95.9344 4.86837 95.6172 4.14394 95.6172 3.30114C95.6172 2.4678 95.9344 1.75284 96.5689 1.15625C97.2128 0.550188 97.9846 0.247158 98.8842 0.247158C99.7839 0.247158 100.551 0.550188 101.185 1.15625C101.829 1.75284 102.151 2.4678 102.151 3.30114C102.151 4.14394 101.829 4.86837 101.185 5.47443C100.551 6.07102 99.7839 6.36932 98.8842 6.36932ZM116.686 31.4261C114.442 31.4261 112.51 30.9716 110.891 30.0625C109.281 29.1439 108.04 27.8466 107.169 26.1705C106.298 24.4848 105.862 22.4915 105.862 20.1903C105.862 17.946 106.298 15.9763 107.169 14.2812C108.04 12.5862 109.267 11.2652 110.848 10.3182C112.439 9.37121 114.304 8.89773 116.445 8.89773C117.884 8.89773 119.224 9.12973 120.464 9.59375C121.714 10.0483 122.804 10.7348 123.732 11.6534C124.669 12.572 125.398 13.7273 125.919 15.1193C126.44 16.5019 126.7 18.1212 126.7 19.9773V21.6392H108.277V17.8892H121.004C121.004 17.018 120.815 16.2462 120.436 15.5739C120.057 14.9015 119.532 14.3759 118.859 13.9972C118.196 13.6089 117.425 13.4148 116.544 13.4148C115.625 13.4148 114.811 13.6278 114.101 14.054C113.4 14.4706 112.851 15.0341 112.453 15.7443C112.055 16.4451 111.852 17.2263 111.842 18.0881V21.6534C111.842 22.733 112.041 23.6657 112.439 24.4517C112.846 25.2377 113.419 25.8438 114.158 26.2699C114.896 26.696 115.772 26.9091 116.786 26.9091C117.458 26.9091 118.073 26.8144 118.632 26.625C119.191 26.4356 119.669 26.1515 120.067 25.7727C120.464 25.3939 120.768 24.9299 120.976 24.3807L126.572 24.75C126.288 26.0947 125.706 27.2689 124.825 28.2727C123.954 29.267 122.827 30.0436 121.445 30.6023C120.071 31.1515 118.485 31.4261 116.686 31.4261ZM136.7 1.90909V31H130.649V1.90909H136.7ZM150.919 1.90909H158.504L166.516 21.4545H166.857L174.868 1.90909H182.453V31H176.487V12.0653H176.246L168.717 30.858H164.655L157.126 11.9943H156.885V31H150.919V1.90909Z" fill="black" fill-opacity="0.2"/>
<path d="M19.8182 11.3125C19.6193 10.6212 19.34 10.0104 18.9801 9.48011C18.6203 8.94034 18.1799 8.4858 17.6591 8.11648C17.1477 7.73769 16.5606 7.44886 15.8977 7.25C15.2443 7.05114 14.5199 6.9517 13.7244 6.9517C12.2377 6.9517 10.9309 7.32102 9.80398 8.05966C8.68655 8.79829 7.81534 9.87311 7.19034 11.2841C6.56534 12.6856 6.25284 14.3996 6.25284 16.4261C6.25284 18.4527 6.56061 20.1761 7.17614 21.5966C7.79167 23.017 8.66288 24.1013 9.78977 24.8494C10.9167 25.5881 12.2472 25.9574 13.7812 25.9574C15.1733 25.9574 16.3617 25.7112 17.3466 25.2188C18.3409 24.7169 19.0985 24.0114 19.6193 23.1023C20.1496 22.1932 20.4148 21.1184 20.4148 19.8778L21.6648 20.0625H14.1648V15.4318H26.3381V19.0966C26.3381 21.6534 25.7983 23.8504 24.7188 25.6875C23.6392 27.5152 22.1525 28.9261 20.2585 29.9205C18.3646 30.9053 16.196 31.3977 13.7528 31.3977C11.0256 31.3977 8.62974 30.7964 6.56534 29.5938C4.50095 28.3816 2.8911 26.6629 1.7358 24.4375C0.589962 22.2027 0.0170455 19.5511 0.0170455 16.483C0.0170455 14.125 0.357955 12.0227 1.03977 10.1761C1.73106 8.32008 2.69697 6.74811 3.9375 5.46023C5.17803 4.17235 6.62216 3.19223 8.26989 2.51989C9.91761 1.84754 11.7027 1.51136 13.625 1.51136C15.2727 1.51136 16.8068 1.75284 18.2273 2.2358C19.6477 2.70928 20.9072 3.38163 22.0057 4.25284C23.1136 5.12405 24.018 6.16098 24.7188 7.36364C25.4195 8.55682 25.8693 9.87311 26.0682 11.3125H19.8182ZM37.0661 31.4119C35.674 31.4119 34.4335 31.1705 33.3445 30.6875C32.2554 30.1951 31.3937 29.4706 30.7592 28.5142C30.1342 27.5483 29.8217 26.3456 29.8217 24.9062C29.8217 23.6941 30.0443 22.6761 30.4893 21.8523C30.9344 21.0284 31.5405 20.3655 32.3075 19.8636C33.0746 19.3617 33.9458 18.983 34.9212 18.7273C35.906 18.4716 36.9382 18.2917 38.0178 18.1875C39.2867 18.0549 40.3094 17.9318 41.0859 17.8182C41.8625 17.6951 42.4259 17.5152 42.7763 17.2784C43.1267 17.0417 43.3018 16.6913 43.3018 16.2273V16.142C43.3018 15.2424 43.0178 14.5464 42.4496 14.054C41.8909 13.5616 41.0954 13.3153 40.0632 13.3153C38.9742 13.3153 38.1077 13.5568 37.4638 14.0398C36.8198 14.5133 36.3937 15.1098 36.1854 15.8295L30.5888 15.375C30.8729 14.0492 31.4316 12.9034 32.2649 11.9375C33.0982 10.9621 34.1731 10.214 35.4893 9.69318C36.8151 9.16288 38.3492 8.89773 40.0916 8.89773C41.3037 8.89773 42.4638 9.03977 43.5717 9.32386C44.6892 9.60795 45.6787 10.0483 46.5405 10.6449C47.4117 11.2415 48.0982 12.0085 48.6001 12.946C49.102 13.8741 49.353 14.9867 49.353 16.2841V31H43.6143V27.9744H43.4439C43.0935 28.6562 42.6248 29.2576 42.0376 29.7784C41.4505 30.2898 40.745 30.6922 39.9212 30.9858C39.0973 31.2699 38.1456 31.4119 37.0661 31.4119ZM38.799 27.2358C39.6892 27.2358 40.4751 27.0606 41.157 26.7102C41.8388 26.3504 42.3738 25.8674 42.7621 25.2614C43.1503 24.6553 43.3445 23.9687 43.3445 23.2017V20.8864C43.1551 21.0095 42.8947 21.1231 42.5632 21.2273C42.2412 21.322 41.8767 21.4119 41.4695 21.4972C41.0623 21.5729 40.6551 21.6439 40.2479 21.7102C39.8407 21.767 39.4714 21.8191 39.1399 21.8665C38.4297 21.9706 37.8094 22.1364 37.2791 22.3636C36.7488 22.5909 36.3369 22.8987 36.0433 23.2869C35.7498 23.6657 35.603 24.1392 35.603 24.7074C35.603 25.5312 35.9013 26.161 36.4979 26.5966C37.1039 27.0227 37.871 27.2358 38.799 27.2358ZM54.1612 31V1.90909H60.2124V12.8466H60.397C60.6622 12.2595 61.0457 11.6629 61.5476 11.0568C62.0589 10.4413 62.7218 9.92992 63.5362 9.52273C64.3601 9.10606 65.3828 8.89773 66.6044 8.89773C68.1953 8.89773 69.6631 9.31439 71.0078 10.1477C72.3525 10.9716 73.4273 12.2169 74.2322 13.8835C75.0372 15.5407 75.4396 17.6193 75.4396 20.1193C75.4396 22.553 75.0466 24.608 74.2607 26.2841C73.4841 27.9508 72.4235 29.215 71.0788 30.0767C69.7436 30.929 68.2474 31.3551 66.5902 31.3551C65.416 31.3551 64.4169 31.161 63.593 30.7727C62.7786 30.3845 62.111 29.8968 61.5902 29.3097C61.0694 28.7131 60.6716 28.1117 60.397 27.5057H60.1271V31H54.1612ZM60.0845 20.0909C60.0845 21.3883 60.2644 22.5199 60.6243 23.4858C60.9841 24.4517 61.505 25.2045 62.1868 25.7443C62.8686 26.2746 63.6972 26.5398 64.6726 26.5398C65.6574 26.5398 66.4908 26.2699 67.1726 25.7301C67.8544 25.1809 68.3705 24.4233 68.7209 23.4574C69.0807 22.482 69.2607 21.3598 69.2607 20.0909C69.2607 18.8314 69.0855 17.7235 68.7351 16.767C68.3847 15.8106 67.8686 15.0625 67.1868 14.5227C66.505 13.983 65.6669 13.7131 64.6726 13.7131C63.6877 13.7131 62.8544 13.9735 62.1726 14.4943C61.5002 15.0152 60.9841 15.7538 60.6243 16.7102C60.2644 17.6667 60.0845 18.7936 60.0845 20.0909ZM79.4773 31V9.18182H85.3438V12.9886H85.571C85.9688 11.6345 86.6364 10.6117 87.5739 9.92045C88.5114 9.2197 89.5909 8.86932 90.8125 8.86932C91.1155 8.86932 91.4422 8.88826 91.7926 8.92614C92.143 8.96402 92.4508 9.0161 92.7159 9.08239V14.4517C92.4318 14.3665 92.0388 14.2907 91.5369 14.2244C91.035 14.1581 90.5758 14.125 90.1591 14.125C89.2689 14.125 88.4735 14.3191 87.7727 14.7074C87.0814 15.0862 86.5322 15.6165 86.125 16.2983C85.7273 16.9801 85.5284 17.7661 85.5284 18.6562V31H79.4773ZM95.8445 31V9.18182H101.896V31H95.8445ZM98.8842 6.36932C97.9846 6.36932 97.2128 6.07102 96.5689 5.47443C95.9344 4.86837 95.6172 4.14394 95.6172 3.30114C95.6172 2.4678 95.9344 1.75284 96.5689 1.15625C97.2128 0.550188 97.9846 0.247158 98.8842 0.247158C99.7839 0.247158 100.551 0.550188 101.185 1.15625C101.829 1.75284 102.151 2.4678 102.151 3.30114C102.151 4.14394 101.829 4.86837 101.185 5.47443C100.551 6.07102 99.7839 6.36932 98.8842 6.36932ZM116.686 31.4261C114.442 31.4261 112.51 30.9716 110.891 30.0625C109.281 29.1439 108.04 27.8466 107.169 26.1705C106.298 24.4848 105.862 22.4915 105.862 20.1903C105.862 17.946 106.298 15.9763 107.169 14.2812C108.04 12.5862 109.267 11.2652 110.848 10.3182C112.439 9.37121 114.304 8.89773 116.445 8.89773C117.884 8.89773 119.224 9.12973 120.464 9.59375C121.714 10.0483 122.804 10.7348 123.732 11.6534C124.669 12.572 125.398 13.7273 125.919 15.1193C126.44 16.5019 126.7 18.1212 126.7 19.9773V21.6392H108.277V17.8892H121.004C121.004 17.018 120.815 16.2462 120.436 15.5739C120.057 14.9015 119.532 14.3759 118.859 13.9972C118.196 13.6089 117.425 13.4148 116.544 13.4148C115.625 13.4148 114.811 13.6278 114.101 14.054C113.4 14.4706 112.851 15.0341 112.453 15.7443C112.055 16.4451 111.852 17.2263 111.842 18.0881V21.6534C111.842 22.733 112.041 23.6657 112.439 24.4517C112.846 25.2377 113.419 25.8438 114.158 26.2699C114.896 26.696 115.772 26.9091 116.786 26.9091C117.458 26.9091 118.073 26.8144 118.632 26.625C119.191 26.4356 119.669 26.1515 120.067 25.7727C120.464 25.3939 120.768 24.9299 120.976 24.3807L126.572 24.75C126.288 26.0947 125.706 27.2689 124.825 28.2727C123.954 29.267 122.827 30.0436 121.445 30.6023C120.071 31.1515 118.485 31.4261 116.686 31.4261ZM136.7 1.90909V31H130.649V1.90909H136.7ZM150.919 1.90909H158.504L166.516 21.4545H166.857L174.868 1.90909H182.453V31H176.487V12.0653H176.246L168.717 30.858H164.655L157.126 11.9943H156.885V31H150.919V1.90909Z" fill="black" fill-opacity="0.2"/>
<path d="M192.432 31.4616C191.26 31.4616 190.254 31.0473 189.413 30.2188C188.585 29.3783 188.17 28.3722 188.17 27.2003C188.17 26.0402 188.585 25.0459 189.413 24.2173C190.254 23.3887 191.26 22.9744 192.432 22.9744C193.568 22.9744 194.563 23.3887 195.415 24.2173C196.267 25.0459 196.693 26.0402 196.693 27.2003C196.693 27.9815 196.492 28.6977 196.089 29.3487C195.699 29.9879 195.184 30.5028 194.545 30.8935C193.906 31.2723 193.201 31.4616 192.432 31.4616Z" fill="#42FF00" fill-opacity="0.97"/>
<path d="M192.432 31.4616C191.26 31.4616 190.254 31.0473 189.413 30.2188C188.585 29.3783 188.17 28.3722 188.17 27.2003C188.17 26.0402 188.585 25.0459 189.413 24.2173C190.254 23.3887 191.26 22.9744 192.432 22.9744C193.568 22.9744 194.563 23.3887 195.415 24.2173C196.267 25.0459 196.693 26.0402 196.693 27.2003C196.693 27.9815 196.492 28.6977 196.089 29.3487C195.699 29.9879 195.184 30.5028 194.545 30.8935C193.906 31.2723 193.201 31.4616 192.432 31.4616Z" fill="black" fill-opacity="0.2"/>
<path d="M192.432 31.4616C191.26 31.4616 190.254 31.0473 189.413 30.2188C188.585 29.3783 188.17 28.3722 188.17 27.2003C188.17 26.0402 188.585 25.0459 189.413 24.2173C190.254 23.3887 191.26 22.9744 192.432 22.9744C193.568 22.9744 194.563 23.3887 195.415 24.2173C196.267 25.0459 196.693 26.0402 196.693 27.2003C196.693 27.9815 196.492 28.6977 196.089 29.3487C195.699 29.9879 195.184 30.5028 194.545 30.8935C193.906 31.2723 193.201 31.4616 192.432 31.4616Z" fill="black" fill-opacity="0.2"/>
</svg>
